<?xml version="1.0" encoding="utf-8"?>
<!-- Generator: Adobe Illustrator 19.0.0, SVG Export Plug-In . SVG Version: 6.00 Build 0)  -->
<svg version="1.1" id="Layer_1" xmlns="http://www.w3.org/2000/svg" xmlns:xlink="http://www.w3.org/1999/xlink" x="0px" y="0px"
	 viewBox="0 0 475 125" style="enable-background:new 0 0 475 125;" xml:space="preserve">
<g id="XMLID_1_">
	<path id="XMLID_64_" d="M208.3,85.8c-4.1,0-8,0-12.2,0c-6.1-9.1-12.2-18.4-18.6-27.9c0,9.5,0,18.6,0,27.9c-4.1,0-8.1,0-12.2,0
		c0-15.8,0-31.5,0-47.3c4.1,0,8.1,0,12.2,0c6.1,9.3,12.3,18.7,18.6,28.3c0-9.5,0-18.9,0-28.3c4.1,0,8.1,0,12.2,0
		C208.3,54.3,208.3,70,208.3,85.8z"/>
	<path id="XMLID_61_" d="M229,85.9c0-15.9,0-31.6,0-47.4c1.2,0,2.3,0,3.5,0c6.3,0,12.6-0.1,18.8,0c2.8,0,5.4,1,7.9,2.1
		c2.4,1.1,4.7,2.5,6.5,4.3c2.1,2.1,3.8,4.6,4.9,7.4c1.4,3.6,2.1,7.2,1.9,11.1c-0.2,5.1-1.8,9.8-4.9,14c-3.3,4.5-8.1,6.8-13.4,8.2
		c-2.5,0.6-5.1,0.3-7.6,0.3c-5.4,0.1-10.7,0-16.1,0C230.2,85.9,229.7,85.9,229,85.9z M241.2,49c0,8.7,0,17.5,0,26.3
		c0.3,0.1,0.6,0.1,0.8,0.1c2.7-0.1,5.4,0.1,8.1-0.2c5-0.7,8.7-3.9,9.9-8.9c0.6-2.4,0.7-4.8,0.2-7.2c-0.6-3.5-2.2-6.4-5.3-8.2
		c-4.1-2.5-8.8-2.3-13.3-2.1C241.5,48.8,241.4,48.9,241.2,49z"/>
	<path id="XMLID_58_" d="M368.5,67.5c3.8,6.2,7.4,12.2,11.1,18.3c-4.4,0-8.8,0-13.3,0c-3.3-5.8-6.7-11.6-10-17.4c-0.8,0-1.5,0-2.4,0
		c0,5.8,0,11.5,0,17.4c-4.1,0-8,0-12,0c0-15.7,0-31.4,0-47.3c1,0,2,0,2.9,0c6.9,0,13.8-0.1,20.7,0.1c3.2,0.1,6,1.4,8.5,3.4
		c3.8,2.9,5.4,6.8,5.5,11.5c0,4.2-1.3,7.7-4.3,10.6c-1.5,1.4-3.3,2.3-5.2,3C369.7,67.2,369.2,67.3,368.5,67.5z M354,60
		c2,0,3.9,0,5.8,0c1.3,0,2.6-0.1,3.9-0.4c2.5-0.5,3.9-2.7,3.7-5.8c-0.2-3.5-1.9-5.3-5.5-5.5c-1.6-0.1-3.3,0-4.9,0c-1,0-2-0.2-3,0.1
		C354,52.3,354,56.1,354,60z"/>
	<path id="XMLID_57_" d="M60.4,72.5c0.1,0.3,0.3,0.3,0.6,0.2c3.8-11.3,7.6-22.7,11.2-34.1c4.3,0,8.5,0,12.9,0
		c-5.6,15.8-11.1,31.5-16.7,47.3c-5.1,0-10.2,0-15.4,0c-5.2-15.7-11.2-31.2-16.4-47.3c4.5,0,8.6,0,12.8,0
		C52.8,49.9,57,61.1,60.4,72.5z"/>
	<path id="XMLID_56_" d="M123.3,52.6c-4.1,11-8.1,22.1-11.6,33.3c-4.3,0-8.5,0-12.8,0c5.9-15.8,11.7-31.6,17.6-47.4
		c4.5,0,8.9,0,13.6,0c5.8,15.7,11.7,31.5,17.6,47.3c-4.3,0-8.6,0-12.9,0C131.3,74.7,127.1,63.8,123.3,52.6z"/>
	<path id="XMLID_55_" d="M443.7,85.9c-4.3,0-8.4,0-12.8,0c-3.8-11.1-7.6-22.3-11.4-33.6c-4.1,11.2-8,22.3-11.7,33.5
		c-4.2,0-8.4,0-12.7,0c5.8-15.8,11.6-31.6,17.6-47.3c4.5,0,8.8,0,13.5,0C432.1,54.1,437.8,70,443.7,85.9z"/>
	<path id="XMLID_54_" d="M322.4,76.5c0,3.3,0,6.3,0,9.3c-10,0-19.9,0-30,0c0-15.8,0-31.5,0-47.3c10,0,19.9,0,30,0c0,3.1,0,6.1,0,9.3
		c-5.9,0-11.9,0-18,0c0,3.2,0,6.3,0,9.5c5.2,0,10.5,0,15.8,0c0,3.1,0,6,0,9.1c-5.3,0-10.5,0-15.8,0c0,3.4,0,6.6,0,10.1
		C310.4,76.5,316.3,76.5,322.4,76.5z"/>
</g>
</svg>
